<?xml version="1.0" encoding="UTF-8" standalone="no"?>
<svg
   width="108.62998"
   zoomAndPan="magnify"
   viewBox="0 0 81.472486 25.41337"
   height="33.884495"
   preserveAspectRatio="xMidYMid"
   version="1.0"
   id="svg225"
   xml:space="preserve"
   sodipodi:docname="logo_agora.svg"
   inkscape:version="1.4.2 (2aeb623e1d, 2025-05-12)"
   inkscape:export-filename="../73dcf66/logo_agora.png"
   inkscape:export-xdpi="300"
   inkscape:export-ydpi="300"
   xmlns:inkscape="http://www.inkscape.org/namespaces/inkscape"
   xmlns:sodipodi="http://sodipodi.sourceforge.net/DTD/sodipodi-0.dtd"
   xmlns="http://www.w3.org/2000/svg"
   xmlns:svg="http://www.w3.org/2000/svg">
  <sodipodi:namedview
   id="namedview1"
   pagecolor="#ffffff"
   bordercolor="#000000"
   borderopacity="0.25"
   inkscape:showpageshadow="2"
   inkscape:pageopacity="0.0"
   inkscape:pagecheckerboard="0"
   inkscape:deskcolor="#d1d1d1"
   showguides="true"
   inkscape:zoom="4"
   inkscape:cx="71.5"
   inkscape:cy="7.625"
   inkscape:window-width="2478"
   inkscape:window-height="1009"
   inkscape:window-x="82"
   inkscape:window-y="32"
   inkscape:window-maximized="1"
   inkscape:current-layer="svg225">
    <sodipodi:guide
   position="47.09994,6.1391868"
   orientation="1,0"
   id="guide112"
   inkscape:locked="false" />
  </sodipodi:namedview>
  <defs
   id="defs6">
    <inkscape:path-effect
   effect="fillet_chamfer"
   id="path-effect115"
   is_visible="true"
   lpeversion="1"
   nodesatellites_param="F,0,0,1,0,0,0,1 @ F,0,0,1,0,0,0,1 @ F,0,0,1,0,0,0,1 @ F,0,0,1,0,0,0,1"
   radius="0"
   unit="px"
   method="auto"
   mode="F"
   chamfer_steps="1"
   flexible="false"
   use_knot_distance="true"
   apply_no_radius="true"
   apply_with_radius="true"
   only_selected="false"
   hide_knots="false" />
    <filter
   x="0"
   y="0"
   width="1"
   height="1"
   id="55d887357e-0">
      <feColorMatrix
   values="0 0 0 0 1 0 0 0 0 1 0 0 0 0 1 0 0 0 1 0"
   color-interpolation-filters="sRGB"
   id="feColorMatrix1-6" />
    </filter>
    <filter
   x="0"
   y="0"
   width="1"
   height="1"
   id="1cb3bcfe9f-2">
      <feColorMatrix
   values="0 0 0 0 1 0 0 0 0 1 0 0 0 0 1 0.2126 0.7152 0.0722 0 0"
   color-interpolation-filters="sRGB"
   id="feColorMatrix2-6" />
    </filter>
  
    
    
    
    
    
    
    
    
    
    
    
    
    
  </defs>
  <path
   style="fill:#fbc44d;fill-opacity:1;stroke:none;stroke-width:0.00941842;stroke-opacity:0.890196"
   d="M 0.05850505,6.0266248 10.373581,-0.23779786 20.660049,6.0233392 17.470793,7.8863958 10.311304,3.6966241 3.3083224,7.875029 Z"
   id="path6596"
   sodipodi:nodetypes="ccccccc" /><path
   style="fill:#fbc44e;fill-opacity:0.996078;stroke:none;stroke-width:0.00941842;stroke-opacity:0.890196"
   d="m 10.31025,12.013763 5.282982,3.143554 2e-6,-6.1376948 -5.282229,-3.1113282 z"
   id="path6597"
   sodipodi:nodetypes="ccccc" /><path
   style="fill:#e01c50;fill-opacity:0.996078;stroke:none;stroke-width:0.00941842;stroke-opacity:0.890196"
   d="m 5.0203351,15.163512 5.2976309,3.070312 5.273439,-3.073241 -5.285159,-3.152345 z"
   id="path6597-9"
   sodipodi:nodetypes="ccccc" /><path
   style="fill:#f9b019;fill-opacity:0.996078;stroke:none;stroke-width:0.00941842;stroke-opacity:0.890196"
   d="m 10.300831,12.013762 -5.282982,3.143555 -2e-6,-6.1376949 5.282229,-3.1113282 z"
   id="path6597-2"
   sodipodi:nodetypes="ccccc" /><path
   style="fill:#f9b019;fill-opacity:0.996078;stroke:none;stroke-width:0.00941842;stroke-opacity:0.890196"
   d="m 20.663085,6.026367 -3.202148,1.8691406 0.01758,12.1054674 3.18466,-1.773092 z"
   id="path105"
   sodipodi:nodetypes="ccccc" /><path
   style="fill:#e01c50;fill-opacity:0.996078;stroke:none;stroke-width:0.00941842;stroke-opacity:0.890196"
   d="M 0.046875,18.210937 V 6.0146483 L 3.3017577,7.889648 v 8.378906 l 7.0134583,4.165868 v 3.788233 z"
   id="path106"
   sodipodi:nodetypes="ccccccc" /><path
   style="fill:#f26a6b;fill-opacity:0.996078;stroke:none;stroke-width:0.00941842;stroke-opacity:0.890196"
   d="m 10.30957,20.43457 v 3.782226 l 5.293691,-3.056314 V 17.42871 Z"
   id="path107" /><path
   id="path109"
   style="fill:#f9b019;fill-opacity:0.996078;stroke:none;stroke-width:0.0107084;stroke-opacity:0.890196"
   d="m 55.797362,8.8139646 a 5.8398848,5.8107586 0 0 0 -5.840332,5.8095704 5.8398848,5.8107586 0 0 0 5.840332,5.811035 5.8398848,5.8107586 0 0 0 5.840332,-5.811035 5.8398848,5.8107586 0 0 0 -5.840332,-5.8095704 z m 0.07031,1.9423824 a 3.7779567,3.7591145 0 0 1 3.777832,3.758789 3.7779567,3.7591145 0 0 1 -3.777832,3.758789 3.7779567,3.7591145 0 0 1 -3.779296,-3.758789 3.7779567,3.7591145 0 0 1 3.779296,-3.758789 z" /><path
   id="path109-7"
   style="fill:#f9b019;fill-opacity:0.996078;stroke:none;stroke-width:0.0107084;stroke-opacity:0.890196"
   d="m 43.434081,8.8139646 a 5.8398848,5.8107586 0 0 0 -5.840332,5.8095704 5.8398848,5.8107586 0 0 0 5.840332,5.811035 5.8398848,5.8107586 0 0 0 3.651855,-1.286133 3.7779567,3.7591145 0 0 1 -3.736816,3.227051 3.7779567,3.7591145 0 0 1 -3.054199,-1.543946 h -2.459473 a 5.8398848,5.8107586 0 0 0 5.44336,3.70459 5.8398848,5.8107586 0 0 0 5.840331,-5.811035 5.8398848,5.8107586 0 0 0 -0.0029,-0.115722 l 0.161133,-3.914063 -0.0029,0.0044 a 5.8398848,5.8107586 0 0 0 0,-0.07617 5.8398848,5.8107586 0 0 0 -5.840332,-5.8095704 z m 0.07031,1.9423824 a 3.7779567,3.7591145 0 0 1 3.777832,3.758789 3.7779567,3.7591145 0 0 1 -3.777832,3.758789 3.7779567,3.7591145 0 0 1 -3.779296,-3.758789 3.7779567,3.7591145 0 0 1 3.779296,-3.758789 z" /><path
   id="path109-6"
   style="fill:#f9b019;fill-opacity:0.996078;stroke:none;stroke-width:0.0107084;stroke-opacity:0.890196"
   d="m 73.993651,8.8139647 a 5.8398848,5.8107586 0 0 0 -5.840332,5.8095703 5.8398848,5.8107586 0 0 0 5.840332,5.811035 5.8398848,5.8107586 0 0 0 3.856933,-1.447266 v 1.464844 h 1.989258 v -6.032227 h -0.0088 A 5.8398848,5.8107586 0 0 0 73.993651,8.8139647 Z m 0.07031,1.9423823 a 3.7779567,3.7591145 0 0 1 3.777832,3.758789 3.7779567,3.7591145 0 0 1 -3.777832,3.758789 3.7779567,3.7591145 0 0 1 -3.779297,-3.758789 3.7779567,3.7591145 0 0 1 3.779297,-3.758789 z" /><path
   id="rect113"
   style="fill:#f9b019;fill-opacity:0.996078;stroke:none;stroke-width:0.00936856;stroke-opacity:0.890196"
   d="M 67.195311,8.8593748 C 65.843304,8.8137237 65.140744,9.3472585 64.628905,10.051758 V 9.0703123 H 62.578123 V 20.304199 h 2.050782 v -7.023926 c 0.221062,-1.305354 0.918525,-2.200052 2.566406,-2.276367 z" /><path
   id="rect114"
   style="baseline-shift:baseline;display:inline;overflow:visible;vector-effect:none;fill:#e01c50;fill-opacity:0.996078;stroke:none;stroke-width:0.0410425;enable-background:accumulate;stop-color:#000000"
   d="m 31.250976,5.4418944 -2.088867,0.014648 0.0015,0.00586 h -0.01172 l -5.381836,14.7832026 2.194336,0.0029 1.485351,-4.171875 3.767578,-0.0029 -0.714843,-2.028808 -2.332032,0.0073 2.027344,-5.6953124 4.240723,11.8710934 2.194336,-0.0029 z" /><path
   style="fill:#e01c50;fill-opacity:0.996078;stroke:none;stroke-width:0.0410425;stroke-opacity:0.890196"
   d="m 29.900389,4.1777343 c 0.0293,0.023437 0.47461,0.8964843 0.47461,0.8964843 L 33.966796,3.4335937 33.281249,1.8632812 Z"
   id="path115" /><text
   xml:space="preserve"
   style="font-size:3px;text-align:start;letter-spacing:2.3325px;writing-mode:lr-tb;direction:ltr;text-anchor:start;fill:#6c6c70;fill-opacity:0.517647;stroke:none;stroke-width:0.0410425;stroke-opacity:0.890196"
   x="49.828125"
   y="24.539062"
   id="text115"><tspan
   sodipodi:role="line"
   id="tspan115"
   style="font-style:normal;font-variant:normal;font-weight:normal;font-stretch:normal;font-size:3px;font-family:'URW Gothic';-inkscape-font-specification:'URW Gothic';letter-spacing:2.3325px;fill:#6c6c70;fill-opacity:0.517647;stroke:none;stroke-width:0.0410425"
   x="49.828125"
   y="24.539062">PESQUISA</tspan> </text>
</svg>
